{
  "accessors": [
    {
      "bufferView": 2,
      "componentType": 5126,
      "count": 24299,
      "max": [
        28.22098159790039,
        17.805814743041992,
        151.69830322265625
      ],
      "min": [
        -29.83000946044922,
        -16.088092803955078,
        82.42282104492188
      ],
      "type": "VEC3"
    },
    {
      "bufferView": 2,
      "byteOffset": 291588,
      "componentType": 5126,
      "count": 24299,
      "max": [
        0.9999987483024597,
        0.9947639107704163,
        0.9388847947120667
      ],
      "min": [
        -0.9999620914459229,
        -0.9999622106552124,
        -0.9373428225517273
      ],
      "type": "VEC3"
    },
    {
      "bufferView": 1,
      "componentType": 5126,
      "count": 24299,
      "max": [
        1.7184125185012817,
        3.95241117477417
      ],
      "min": [
        -0.7441239953041077,
        -6.588435649871826
      ],
      "type": "VEC2"
    },
    {
      "bufferView": 1,
      "byteOffset": 194392,
      "componentType": 5126,
      "count": 24299,
      "max": [
        286.8094482421875,
        384.4825439453125
      ],
      "min": [
        -582.405517578125,
        -322.675537109375
      ],
      "type": "VEC2"
    },
    {
      "bufferView": 0,
      "componentType": 5125,
      "count": 129843,
      "type": "SCALAR"
    }
  ],
  "asset": {
    "extras": {
      "author": "rezlout (https://sketchfab.com/rezlout)",
      "license": "CC-BY-4.0 (http://creativecommons.org/licenses/by/4.0/)",
      "source": "https://sketchfab.com/3d-models/c2fd167574244da3afbb858eccfad3ab",
      "title": "футболка тейп"
    },
    "generator": "Sketchfab-13.83.0",
    "version": "2.0"
  },
  "bufferViews": [
    {
      "buffer": 0,
      "byteLength": 519372,
      "name": "floatBufferViews",
      "target": 34963
    },
    {
      "buffer": 0,
      "byteLength": 388784,
      "byteOffset": 519372,
      "byteStride": 8,
      "name": "floatBufferViews",
      "target": 34962
    },
    {
      "buffer": 0,
      "byteLength": 583176,
      "byteOffset": 908156,
      "byteStride": 12,
      "name": "floatBufferViews",
      "target": 34962
    }
  ],
  "buffers": [
    {
      "byteLength": 1491332,
      "uri": "scene.bin"
    }
  ],
  "materials": [
    {
      "doubleSided": true,
      "name": "Material.006",
      "pbrMetallicRoughness": {
        "baseColorFactor": [
          0.8,
          0.8,
          0.8,
          1.0
        ],
        "metallicFactor": 0.0,
        "roughnessFactor": 0.9488318565014393
      }
    }
  ],
  "meshes": [
    {
      "name": "cloth_parent.002_Material.006_0",
      "primitives": [
        {
          "attributes": {
            "NORMAL": 1,
            "POSITION": 0,
            "TEXCOORD_0": 2,
            "TEXCOORD_1": 3
          },
          "indices": 4,
          "material": 0,
          "mode": 4
        }
      ]
    }
  ],
  "nodes": [
    {
      "children": [
        1
      ],
      "matrix": [
        1.0,
        0.0,
        0.0,
        0.0,
        0.0,
        2.220446049250313e-16,
        -1.0,
        0.0,
        0.0,
        1.0,
        2.220446049250313e-16,
        0.0,
        0.0,
        0.0,
        0.0,
        1.0
      ],
      "name": "Sketchfab_model"
    },
    {
      "children": [
        2
      ],
      "matrix": [
        0.009999999776482582,
        0.0,
        0.0,
        0.0,
        0.0,
        0.0,
        0.009999999776482582,
        0.0,
        0.0,
        -0.009999999776482582,
        0.0,
        0.0,
        0.0,
        0.0,
        0.0,
        1.0
      ],
      "name": "f038a14145ff4bb1845ebcdea6babd0a.fbx"
    },
    {
      "children": [
        3,
        5,
        8
      ],
      "name": "RootNode"
    },
    {
      "children": [
        4
      ],
      "matrix": [
        -61.74504215200385,
        -23.17479856332587,
        -75.16966463405663,
        0.0,
        -14.709754068963408,
        97.27758586410971,
        -17.907943033229113,
        0.0,
        77.27336478294373,
        5.827710143624376e-06,
        -63.47304227088917,
        0.0,
        84.77410888671875,
        157.03468322753906,
        109.00166320800781,
        1.0
      ],
      "name": "Camera"
    },
    {
      "name": "Object_4"
    },
    {
      "children": [
        6
      ],
      "matrix": [
        26.293669487026857,
        -32.45470097509737,
        -15.204502527210094,
        0.0,
        35.73516721027531,
        22.301587593043436,
        14.194303213947563,
        0.0,
        -2.735345767897859,
        -20.61972319602455,
        39.28340778618088,
        0.0,
        81.00289916992188,
        173.19796752929688,
        34.592838287353516,
        1.0
      ],
      "name": "Area"
    },
    {
      "children": [
        7
      ],
      "matrix": [
        1.0,
        0.0,
        0.0,
        0.0,
        0.0,
        2.220446049250313e-16,
        1.0,
        0.0,
        0.0,
        -1.0,
        2.220446049250313e-16,
        0.0,
        0.0,
        0.0,
        0.0,
        1.0
      ],
      "name": "Object_6"
    },
    {
      "name": "Object_7"
    },
    {
      "children": [
        9
      ],
      "matrix": [
        0.5216002464636517,
        4.602890027543327e-08,
        -0.9409918636204168,
        0.0,
        -0.9409918636204136,
        1.2644455873016871e-07,
        -0.5216002464636439,
        0.0,
        8.827565442256113e-08,
        1.0758868455886756,
        1.015593173443838e-07,
        0.0,
        0.0,
        -3.8087286949157715,
        0.0,
        1.0
      ],
      "name": "cloth_parent.002"
    },
    {
      "mesh": 0,
      "name": "cloth_parent.002_Material.006_0"
    }
  ],
  "scene": 0,
  "scenes": [
    {
      "name": "Sketchfab_Scene",
      "nodes": [
        0
      ]
    }
  ]
}
